<svg xmlns="http://www.w3.org/2000/svg" viewBox="0 0 64 64" fill="none">
  <rect width="64" height="64" rx="14" fill="url(#g)"/>
  <path d="M8 42c4 0 4-4 8-4s4 4 8 4 4-4 8-4 4 4 8 4 4-4 8-4 4 4 8 4" stroke="#fff" stroke-width="2.5" stroke-linecap="round"/>
  <path d="M8 50c4 0 4-4 8-4s4 4 8 4 4-4 8-4 4 4 8 4 4-4 8-4 4 4 8 4" stroke="#fff" stroke-width="2.5" stroke-linecap="round" opacity="0.6"/>
  <text x="32" y="26" font-family="-apple-system, BlinkMacSystemFont, sans-serif" font-size="18" font-weight="700" fill="#fff" text-anchor="middle" letter-spacing="-1">LL</text>
  <defs>
    <linearGradient id="g" x1="0" y1="0" x2="64" y2="64" gradientUnits="userSpaceOnUse">
      <stop stop-color="#0077BE"/>
      <stop offset="1" stop-color="#00B4D8"/>
    </linearGradient>
  </defs>
</svg>
